<svg width="273" height="100" viewBox="0 0 273 100" fill="none" xmlns="http://www.w3.org/2000/svg">
<path d="M43.7 99.5C74.3 86.6 84.1 77.2 84.1 51V3.39999H43.7H3.3V50.9C3.4 77.2 13.1 86.6 43.7 99.5Z" fill="#211F1A"/>
<path d="M41.4 97.7C72 84.8 81.8 75.4 81.8 49.2V1.59999H41.4H1V49.1C1 75.4 10.8 84.8 41.4 97.7Z" fill="black"/>
<path d="M41.4 97.7C72 84.8 81.8 75.4 81.8 49.2V1.59999H41.4H1V49.1C1 75.4 10.8 84.8 41.4 97.7Z" stroke="#595B5D" stroke-width="0.1722" stroke-miterlimit="10"/>
<path d="M3.5 15.2V3.8H15L16.4 2.3H1.8V17L3.5 15.2Z" fill="#D9CD43"/>
<path d="M3.5 19.7V15.2L1.8 17V21.5L3.5 19.7Z" fill="#D9CD46"/>
<path d="M20.9 2.3H16.4L15 3.8H19.5L20.9 2.3Z" fill="#D9CD46"/>
<path d="M3.5 22V17.4L1.8 19.2V23.8L3.5 22Z" fill="#D9CE49"/>
<path d="M23.2 2.3H18.7L17.2 3.8H21.7L23.2 2.3Z" fill="#D9CE49"/>
<path d="M3.5 24.3V19.7L1.8 21.5V26.1L3.5 24.3Z" fill="#D9CD4D"/>
<path d="M25.5 2.3H20.9L19.5 3.8H24L25.5 2.3Z" fill="#D9CD4D"/>
<path d="M3.5 26.5V22L1.8 23.8V28.3L3.5 26.5Z" fill="#D9CD50"/>
<path d="M27.7 2.3H23.2L21.7 3.8H26.2L27.7 2.3Z" fill="#D9CD50"/>
<path d="M3.5 28.8V24.3L1.8 26.1V30.6L3.5 28.8Z" fill="#D8CD54"/>
<path d="M30 2.3H25.5L24 3.8H28.5L30 2.3Z" fill="#D8CD54"/>
<path d="M3.5 31.1V26.5L1.8 28.3V32.8L3.5 31.1Z" fill="#D9CD57"/>
<path d="M32.3 2.3H27.7L26.2 3.8H30.8L32.3 2.3Z" fill="#D9CD57"/>
<path d="M3.5 33.4V28.8L1.8 30.6V35.1L3.5 33.4Z" fill="#D7CD5C"/>
<path d="M34.5 2.3H30L28.5 3.8H33.1L34.5 2.3Z" fill="#D7CD5C"/>
<path d="M3.5 35.6V31.1L1.8 32.8V37.4L3.5 35.6Z" fill="#D7CD5F"/>
<path d="M36.8 2.3H32.3L30.8 3.8H35.1L35.5 3.6L36.8 2.3Z" fill="#D7CD5F"/>
<path d="M3.5 37.9V33.4L1.8 35.1V39.6L3.5 37.9Z" fill="#D7CD69"/>
<path d="M34.5 2.3H37.9L35.1 3.8H33.1L34.5 2.3Z" fill="#D7CD69"/>
<path d="M3.5 35.6V38.7L1.8 40.9V37.4L3.5 35.6Z" fill="#D7CD63"/>
<path d="M36.8 2.3H37.9L35.5 3.6L36.8 2.3Z" fill="#D7CD63"/>
<path d="M3.6 3.9V3.8L1.8 2.3V2.4L3.6 3.9Z" fill="#7B8CC0"/>
<path d="M3.6 3.9V3.8L1.8 2.3V2.4L3.6 3.9Z" stroke="#7B8CC0" stroke-width="0.0444617" stroke-miterlimit="10"/>
<path d="M28.3 86.6H55.1C51.2 88.7 46.8 90.7 41.7 92.9C36.6 90.7 32.2 88.7 28.3 86.6Z" fill="#919198"/>
<path d="M17.1 79.2H66.3C64.3 80.9 62.1 82.5 59.5 84.1H23.9C21.3 82.5 19.1 80.9 17.1 79.2Z" fill="#919198"/>
<path d="M11.4 72.8H72C71.1 74.2 70 75.6 68.8 76.8H14.6C13.4 75.6 12.3 74.3 11.4 72.8Z" fill="#919198"/>
<path d="M8.6 67.4H74.8C74.3 68.6 73.8 69.8 73.2 70.9H10.2C9.6 69.8 9.1 68.6 8.6 67.4Z" fill="#919198"/>
<path d="M7.2 63H76.2C76 63.9 75.8 64.7 75.5 65.6H7.9C7.7 64.8 7.4 63.9 7.2 63Z" fill="#919198"/>
<path d="M6.5 59.3H76.9C76.8 59.9 76.7 60.6 76.6 61.2H6.8C6.7 60.6 6.6 59.9 6.5 59.3Z" fill="#919198"/>
<path d="M6.1 55.8H77.3C77.3 56.3 77.2 56.8 77.2 57.2H6.3C6.2 56.7 6.2 56.2 6.1 55.8Z" fill="#919198"/>
<path d="M5.9 52.9H77.4C77.4 53.2 77.4 53.5 77.4 53.9H6C6 53.5 6 53.2 5.9 52.9Z" fill="#919198"/>
<path d="M5.9 50H77.5C77.5 50.2 77.5 50.5 77.5 50.7H5.9C5.9 50.5 5.9 50.3 5.9 50Z" fill="#919198"/>
<path d="M10.9 18.5C9.2 17 8.8 15.1 8.8 13.5C8.8 12.3 9.1 10.3 10.8 8.8C12 7.7 13.6 7 16.1 7C17.2 7 17.8 7.1 18.6 7.2C19.2 7.3 19.8 7.4 20.3 7.5C20.5 7.5 20.6 7.6 20.6 7.7C20.6 7.8 20.6 8 20.5 8.6C20.5 9.2 20.5 10.1 20.5 10.4C20.5 10.7 20.4 10.8 20.3 10.8C20.2 10.8 20.1 10.7 20.1 10.4C20.1 9.9 19.9 9.3 19.4 8.8C18.8 8.2 17.5 7.7 15.9 7.7C14.4 7.7 13.5 8.1 12.7 8.8C11.5 9.9 11.1 11.6 11.1 13.2C11.1 17.3 14.2 19.3 16.5 19.3C18 19.3 18.9 19.1 19.6 18.3C19.9 18 20.1 17.5 20.2 17.2C20.2 16.9 20.3 16.9 20.4 16.9C20.5 16.9 20.6 17 20.6 17.2C20.6 17.4 20.4 18.9 20.2 19.5C20.1 19.8 20 19.9 19.8 20C19.1 20.3 17.8 20.4 16.7 20.4C14.3 20.3 12.4 19.8 10.9 18.5Z" fill="white"/>
<path d="M24.2 12.2C24.2 9.6 24.2 9.1 24.2 8.6C24.2 8 24 7.7 23.6 7.6C23.4 7.5 23.2 7.5 23 7.5C22.8 7.5 22.7 7.5 22.7 7.3C22.7 7.2 22.8 7.2 23.1 7.2C23.8 7.2 24.8 7.3 25.3 7.3C25.7 7.3 26.7 7.2 27.4 7.2C27.6 7.2 27.8 7.2 27.8 7.3C27.8 7.4 27.7 7.5 27.5 7.5C27.3 7.5 27.2 7.5 27 7.5C26.6 7.6 26.4 7.9 26.4 8.5C26.4 9 26.4 9.5 26.4 12.1V15.1C26.4 16.8 26.4 18.1 26.5 18.8C26.6 19.2 26.7 19.6 27.2 19.6C27.5 19.6 27.8 19.7 28.1 19.7C28.3 19.7 28.4 19.7 28.4 19.8C28.4 19.9 28.2 20 28.1 20C27 20 25.9 19.9 25.4 19.9C25 19.9 23.9 20 23.2 20C23 20 22.9 19.9 22.9 19.8C22.9 19.7 23 19.7 23.2 19.7C23.5 19.7 23.7 19.7 23.8 19.6C24.1 19.5 24.2 19.2 24.3 18.7C24.4 18 24.4 16.6 24.4 15L24.2 12.2Z" fill="white"/>
<path d="M31.9 12.2C31.9 9.6 31.9 9.1 31.9 8.6C31.9 8 31.7 7.7 31.2 7.6C31.1 7.6 30.8 7.6 30.5 7.6C30.3 7.6 30.2 7.6 30.2 7.4C30.2 7.2 30.3 7.2 30.6 7.2C31.5 7.2 32.6 7.3 33 7.3C33.4 7.3 34.5 7.2 35.1 7.2C35.3 7.2 35.5 7.2 35.5 7.4C35.5 7.6 35.4 7.6 35.2 7.6C35 7.6 34.9 7.6 34.7 7.6C34.2 7.7 34.1 8 34.1 8.6C34.1 9.1 34.1 9.6 34.1 12.2V15.3C34.1 16 34.1 16.9 34.1 17.7C34.1 18.7 34 19.8 33.7 20.7C33.4 21.7 32.4 22.9 30.8 23.9C30.6 24 30.3 24.2 29.9 24.3C29.8 24.4 29.6 24.4 29.6 24.4C29.5 24.4 29.5 24.4 29.5 24.3C29.5 24.2 29.6 24.1 29.9 24C30.1 23.9 30.4 23.7 30.7 23.4C32 22.1 32 20.4 32 17L31.9 12.2Z" fill="white"/>
<path d="M38.6 12.2C38.6 9.6 38.6 9.1 38.6 8.6C38.6 8 38.4 7.7 37.9 7.6C37.8 7.6 37.5 7.6 37.2 7.6C37 7.6 36.9 7.6 36.9 7.4C36.9 7.2 37 7.2 37.3 7.2C38.2 7.2 39.3 7.3 39.8 7.3C40.2 7.3 41.3 7.2 41.9 7.2C42.2 7.2 42.3 7.2 42.3 7.4C42.3 7.6 42.2 7.5 42 7.5C41.8 7.5 41.7 7.5 41.5 7.5C41 7.6 40.9 7.9 40.9 8.5C40.9 9 40.9 9.5 40.9 12.1V14.5C40.9 17 41.4 18 42.2 18.7C43 19.3 43.8 19.4 44.3 19.4C45 19.4 46 19.2 46.6 18.5C47.5 17.6 47.6 16 47.6 14.3V12.2C47.6 9.6 47.6 9.1 47.6 8.6C47.6 8 47.4 7.7 46.9 7.6C46.8 7.6 46.5 7.6 46.3 7.6C46.1 7.6 46 7.5 46 7.4C46 7.3 46.1 7.2 46.4 7.2C47.3 7.2 48.3 7.3 48.4 7.3C48.6 7.3 49.7 7.2 50.3 7.2C50.5 7.2 50.6 7.2 50.6 7.4C50.6 7.6 50.5 7.6 50.3 7.6C50.1 7.6 50 7.6 49.8 7.6C49.3 7.7 49.2 8 49.2 8.6C49.2 9.1 49.2 9.6 49.2 12.2V14C49.2 15.9 49 17.9 47.6 19.1C46.4 20.1 45.2 20.3 44.1 20.3C43.2 20.3 41.6 20.2 40.3 19.1C39.4 18.3 38.8 17 38.8 14.6L38.6 12.2Z" fill="white"/>
<path d="M51.9 19.9C51.6 19.8 51.5 19.7 51.5 19.3C51.5 18.4 51.6 17.3 51.6 17.1C51.6 16.8 51.7 16.7 51.9 16.7C52.1 16.7 52.1 16.9 52.1 17C52.1 17.2 52.2 17.6 52.3 17.9C52.7 19.2 54 19.6 55.2 19.6C57 19.6 58 18.6 58 17.7C58 16.9 57.7 16.1 56 15L55 14.2C52.7 12.7 52 11.5 52 10.2C52 8.3 53.9 7 56.7 7C58 7 58.9 7.2 59.4 7.3C59.6 7.3 59.7 7.4 59.7 7.5C59.7 7.7 59.6 8.2 59.6 9.5C59.6 9.9 59.5 10 59.4 10C59.3 10 59.2 9.9 59.2 9.7C59.2 9.5 59.1 9 58.7 8.6C58.4 8.3 57.8 7.8 56.5 7.8C55 7.8 54.1 8.5 54.1 9.5C54.1 10.3 54.6 10.9 56.3 12L56.9 12.4C59.4 13.9 60.3 15.1 60.3 16.7C60.3 17.7 59.9 18.9 58.4 19.7C57.4 20.2 56.2 20.4 55.1 20.4C53.7 20.3 52.8 20.2 51.9 19.9Z" fill="white"/>
<path d="M61.5 13.7C61.5 10.8 63.4 7 68.5 7C72.7 7 75.4 9.5 75.4 13.4C75.4 17.3 72.7 20.4 68.4 20.4C63.5 20.3 61.5 16.7 61.5 13.7ZM73.1 14C73.1 10.2 70.9 7.8 68.1 7.8C66.1 7.8 63.9 8.9 63.9 13.1C63.9 16.7 65.9 19.5 69.1 19.5C70.3 19.5 73.1 18.9 73.1 14Z" fill="white"/>
<path d="M40.2 39.9C40.2 40.9 40.9 41.6 41.8 41.8C42 41.8 42.1 41.9 42.2 41.9C42.4 41.9 42.5 41.9 42.7 41.8C43.6 41.6 44.2 40.8 44.2 39.9C44.2 39 43.5 38.2 42.7 38C42.5 38 42.4 37.9 42.2 37.9C42 37.9 41.9 37.9 41.8 37.9C40.8 38.1 40.2 38.9 40.2 39.9Z" fill="black"/>
<path d="M38.9 71.6L36.3 49.1L35.9 45.2L34.9 45.3L38 72.1C38.2 71.9 38.6 71.8 38.9 71.6Z" fill="black"/>
<path d="M46.4 72.2L49.5 45.3L48.5 45.2L48 49.3L45.4 71.6C45.8 71.8 46.1 72 46.4 72.2Z" fill="black"/>
<path d="M65.2 51.7H19.2V78H65.2V51.7Z" fill="#211F1A"/>
<path d="M39.4 73.5H41.3V55.9V52.9V41C40.3 40.8 39.6 39.9 39.6 38.9C39.6 37.9 40.3 37 41.3 36.8V23.2C41.3 23.2 40.3 32 34.1 37.2L35.1 46.5L35.4 48.9L38.3 73.7C38.6 73.6 39 73.5 39.4 73.5Z" fill="white"/>
<path d="M44 38.8C44 39.8 43.3 40.7 42.3 40.9V52.6V55.6V73.4H44.1C44.5 73.4 45 73.5 45.4 73.6L48.2 49.1L48.5 46.4L49.5 37.2C43.2 32 42.3 23.2 42.3 23.2V36.7C43.3 36.9 44 37.8 44 38.8Z" fill="white"/>
<path d="M47.6 78.2C47.6 78.8 47.2 79.2 46.6 79.2H40.6C40 79.2 39.6 78.8 39.6 78.2C39.6 77.6 40.1 77.2 40.6 77.2H46.6C47.1 77.2 47.6 77.7 47.6 78.2Z" fill="black"/>
<path d="M22.3 48.7L18.9 49L18.8 78C18.8 78 30.7 78.3 34.8 76.7C34.8 76.7 37.2 76.2 38 77.3C38 77.3 37.8 78.2 38.9 78.3L41.9 78.4L41.8 51.8C41.8 51.8 42.2 45.3 24.6 47.9C24.6 47.9 23.3 48 22.3 48.7Z" fill="#211F1A"/>
<path d="M19.7 49.7H21.6L20.8 50.8L20.9 75.7C20.9 75.7 22.7 76.3 26.5 75.6C26.5 75.6 36.5 73 40.3 76.6C40.3 76.6 41.1 76.9 41.9 76.9V77.9H39.2C39.2 77.9 38.5 78 38.8 77.4C38.8 77.4 38.3 76.1 35.9 76.1C35.9 76.1 30.1 77.1 28.9 77.1C28.9 77.1 20.2 77.6 19.7 77.3V49.7Z" fill="#D7CD69"/>
<path d="M21.6 51.2L22.4 50.1L22.7 72.4L21.6 73.8V51.2Z" fill="#D7CD69"/>
<path d="M23.3 49C23.3 49 39.4 45.8 41.2 51.9V74.6C41.2 74.6 39.6 71.8 36 71.3C36 71.3 29.1 70.7 23.4 72L23.3 49Z" fill="#D7CD69"/>
<path d="M61.3 48.7L64.7 49L64.8 78C64.8 78 52.9 78.3 48.8 76.7C48.8 76.7 46.4 76.2 45.6 77.3C45.6 77.3 45.8 78.2 44.7 78.3L41.9 78.4L41.8 51.8C41.8 51.8 41.4 45.3 59 47.9C59 47.9 60.3 48 61.3 48.7Z" fill="#211F1A"/>
<path d="M63.9 49.7H62L62.8 50.8L62.7 75.7C62.7 75.7 60.9 76.3 57.1 75.6C57.1 75.6 47.1 73 43.2 76.6C43.2 76.6 42.5 76.9 41.7 76.9V77.8H44.2C44.2 77.8 44.9 77.9 44.6 77.3C44.6 77.3 45.1 76 47.5 76C47.5 76 53.3 77 54.5 77C54.5 77 63.2 77.5 63.7 77.2L63.9 49.7Z" fill="#D7CD69"/>
<path d="M62.1 51.2L61.3 50.1L60.9 72.4L62 73.8L62.1 51.2Z" fill="#D7CD69"/>
<path d="M60.3 49C60.3 49 44.2 45.8 42.4 51.9V74.6C42.4 74.6 44 71.8 47.6 71.3C47.6 71.3 54.5 70.7 60.2 72L60.3 49Z" fill="#D7CD69"/>
<path d="M95 85.2C94 84.4 93.8 83.4 93.8 82.5C93.8 81.9 94 80.8 94.9 80C95.6 79.4 96.5 79 97.9 79C98.5 79 98.9 79 99.3 79.1C99.7 79.1 100 79.2 100.3 79.3C100.4 79.3 100.4 79.3 100.4 79.4C100.4 79.5 100.4 79.6 100.4 79.9C100.4 80.2 100.4 80.7 100.4 80.9C100.4 81 100.4 81.1 100.3 81.1C100.2 81.1 100.2 81 100.2 80.9C100.2 80.6 100.1 80.3 99.8 80C99.5 79.7 98.8 79.5 98 79.5C97.2 79.5 96.6 79.7 96.2 80C95.5 80.6 95.3 81.5 95.3 82.4C95.3 84.6 97 85.6 98.3 85.6C99.1 85.6 99.6 85.5 100 85.1C100.2 84.9 100.3 84.7 100.3 84.5C100.3 84.4 100.3 84.3 100.4 84.3C100.5 84.3 100.5 84.4 100.5 84.5C100.5 84.6 100.4 85.4 100.3 85.7C100.3 85.9 100.2 85.9 100 86C99.6 86.2 98.9 86.2 98.3 86.2C97 86.2 95.9 86 95 85.2Z" fill="#211F1A"/>
<path d="M102.6 81.8C102.6 80.4 102.6 80.1 102.6 79.8C102.6 79.5 102.5 79.4 102.3 79.3C102.2 79.3 102.1 79.3 102 79.3C101.9 79.3 101.8 79.3 101.8 79.2C101.8 79.1 101.9 79.1 102 79.1C102.4 79.1 103 79.1 103.3 79.1C103.5 79.1 104.2 79.1 104.5 79.1C104.6 79.1 104.7 79.1 104.7 79.2C104.7 79.3 104.6 79.3 104.5 79.3C104.4 79.3 104.3 79.3 104.2 79.3C103.9 79.3 103.9 79.5 103.9 79.8C103.9 80.1 103.9 80.4 103.9 81.8V83.4C103.9 84.3 103.9 85 104 85.4C104 85.7 104.1 85.8 104.4 85.8C104.5 85.8 104.7 85.8 104.9 85.8C105 85.8 105.1 85.9 105.1 85.9C105.1 86 105 86 104.9 86C104.3 86 103.6 86 103.3 86C103.1 86 102.4 86 102.1 86C102 86 101.9 86 101.9 85.9C101.9 85.9 101.9 85.8 102.1 85.8C102.3 85.8 102.4 85.8 102.4 85.8C102.6 85.8 102.7 85.6 102.7 85.4C102.7 85 102.7 84.3 102.7 83.4L102.6 81.8Z" fill="#211F1A"/>
<path d="M107 81.8C107 80.4 107 80.1 107 79.8C107 79.5 106.9 79.4 106.6 79.3C106.5 79.3 106.4 79.3 106.2 79.3C106.1 79.3 106 79.3 106 79.2C106 79.1 106.1 79.1 106.2 79.1C106.7 79.1 107.3 79.1 107.6 79.1C107.9 79.1 110 79.1 110.2 79.1C110.4 79.1 110.5 79.1 110.6 79.1C110.7 79.1 110.7 79.1 110.8 79.1C110.9 79.1 110.9 79.1 110.9 79.2C110.9 79.3 110.8 79.4 110.8 79.8C110.8 79.9 110.8 80.3 110.7 80.4C110.7 80.4 110.7 80.6 110.6 80.6C110.5 80.6 110.5 80.6 110.5 80.5C110.5 80.4 110.5 80.3 110.4 80.2C110.3 80 110.2 79.9 109.8 79.9C109.6 79.9 108.5 79.9 108.3 79.9C108.3 79.9 108.2 79.9 108.2 80V82C108.2 82 108.2 82.1 108.3 82.1C108.5 82.1 109.8 82.1 110 82.1C110.2 82.1 110.4 82.1 110.5 82C110.6 81.9 110.6 81.9 110.7 81.9C110.7 81.9 110.8 81.9 110.8 82C110.8 82.1 110.8 82.2 110.7 82.7C110.7 82.9 110.7 83.3 110.7 83.3C110.7 83.4 110.7 83.5 110.6 83.5C110.5 83.5 110.5 83.5 110.5 83.4C110.5 83.3 110.5 83.2 110.5 83.1C110.4 82.9 110.3 82.8 110 82.7C109.8 82.7 108.7 82.7 108.5 82.7C108.5 82.7 108.4 82.7 108.4 82.8V83.5C108.4 83.8 108.4 84.6 108.4 84.9C108.4 85.5 108.7 85.7 109.7 85.7C110 85.7 110.3 85.7 110.6 85.6C110.8 85.5 110.9 85.3 111 84.9C111 84.8 111 84.8 111.1 84.8C111.2 84.8 111.2 84.9 111.2 85C111.2 85.2 111.1 85.9 111.1 86C111 86.2 110.9 86.2 110.6 86.2C109.9 86.2 109.3 86.2 108.9 86.2C108.4 86.2 108.1 86.2 107.8 86.2C107.7 86.2 107.5 86.2 107.3 86.2C107.1 86.2 106.8 86.2 106.6 86.2C106.5 86.2 106.4 86.2 106.4 86.1C106.4 86.1 106.4 86 106.6 86C106.7 86 106.9 86 106.9 86C107.1 86 107.2 85.8 107.2 85.5C107.2 85.1 107.2 84.4 107.2 83.5L107 81.8Z" fill="#211F1A"/>
<path d="M113.6 84.9C113.6 85.6 113.7 85.8 113.9 85.9C114.1 86 114.2 86 114.4 86C114.5 86 114.6 86 114.6 86.1C114.6 86.2 114.5 86.2 114.4 86.2C113.8 86.2 113.3 86.2 113.2 86.2C113.1 86.2 112.7 86.2 112.2 86.2C112.1 86.2 112 86.2 112 86.1C112 86.1 112.1 86 112.2 86C112.3 86 112.5 86 112.6 86C112.9 85.9 112.9 85.7 112.9 84.9L113 79.4C113 79.2 113.1 79.1 113.2 79.1C113.3 79.1 113.5 79.2 113.6 79.4C113.7 79.5 115.2 81 116.6 82.4C117.3 83 118.5 84.4 118.7 84.5L118.6 80.4C118.6 79.8 118.5 79.7 118.3 79.6C118.2 79.6 117.9 79.6 117.8 79.6C117.7 79.6 117.6 79.6 117.6 79.5C117.6 79.4 117.7 79.4 117.8 79.4C118.3 79.4 118.8 79.4 119 79.4C119.1 79.4 119.5 79.4 119.9 79.4C120 79.4 120.1 79.4 120.1 79.5C120.1 79.6 120.1 79.6 119.9 79.6C119.8 79.6 119.7 79.6 119.6 79.6C119.3 79.7 119.3 79.8 119.3 80.4L119.2 86.2C119.2 86.4 119.1 86.5 119 86.5C118.8 86.5 118.7 86.4 118.6 86.3C118 85.7 116.8 84.6 115.8 83.6C114.8 82.6 113.7 81.5 113.5 81.3L113.6 84.9Z" fill="#211F1A"/>
<path d="M122.2 85.2C121.2 84.4 121 83.4 121 82.5C121 81.9 121.2 80.8 122.1 80C122.8 79.4 123.7 79 125.1 79C125.7 79 126.1 79 126.5 79.1C126.9 79.1 127.2 79.2 127.5 79.3C127.6 79.3 127.6 79.3 127.6 79.4C127.6 79.5 127.6 79.6 127.6 79.9C127.6 80.2 127.6 80.7 127.6 80.9C127.6 81 127.6 81.1 127.5 81.1C127.4 81.1 127.4 81 127.4 80.9C127.4 80.6 127.3 80.3 127 80C126.7 79.7 126 79.5 125.2 79.5C124.4 79.5 123.8 79.7 123.4 80C122.7 80.6 122.5 81.5 122.5 82.4C122.5 84.6 124.2 85.6 125.5 85.6C126.4 85.6 126.8 85.5 127.2 85.1C127.4 84.9 127.5 84.7 127.5 84.5C127.5 84.4 127.5 84.3 127.6 84.3C127.7 84.3 127.7 84.4 127.7 84.5C127.7 84.6 127.6 85.4 127.5 85.7C127.5 85.9 127.4 85.9 127.2 86C126.8 86.2 126.1 86.2 125.5 86.2C124.2 86.2 123.1 86 122.2 85.2Z" fill="#211F1A"/>
<path d="M129.8 81.8C129.8 80.4 129.8 80.1 129.8 79.8C129.8 79.5 129.7 79.4 129.5 79.3C129.4 79.3 129.3 79.3 129.2 79.3C129.1 79.3 129 79.3 129 79.2C129 79.1 129.1 79.1 129.2 79.1C129.5 79.1 130.2 79.1 130.5 79.1C130.7 79.1 131.4 79.1 131.7 79.1C131.8 79.1 131.9 79.1 131.9 79.2C131.9 79.3 131.8 79.3 131.7 79.3C131.6 79.3 131.5 79.3 131.4 79.3C131.1 79.3 131.1 79.5 131 79.8C131 80.1 131 80.4 131 81.8V83.4C131 84.3 131 85 131 85.4C131 85.7 131.1 85.8 131.4 85.8C131.5 85.8 131.7 85.8 131.9 85.8C132 85.8 132.1 85.9 132.1 85.9C132.1 86 132 86 131.9 86C131.3 86 130.6 86 130.3 86C130.1 86 129.4 86 129 86C128.9 86 128.8 86 128.8 85.9C128.8 85.9 128.8 85.8 129 85.8C129.1 85.8 129.3 85.8 129.3 85.8C129.5 85.8 129.6 85.6 129.6 85.4C129.6 85 129.6 84.3 129.6 83.4L129.8 81.8Z" fill="#211F1A"/>
<path d="M134.6 83.8L134 85.1C133.9 85.3 133.9 85.6 133.9 85.7C133.9 85.9 134 86 134.3 86H134.4C134.5 86 134.5 86 134.5 86.1C134.5 86.2 134.4 86.2 134.3 86.2C134 86.2 133.5 86.2 133.2 86.2C133.1 86.2 132.6 86.2 132.1 86.2C132 86.2 131.9 86.2 131.9 86.1C131.9 86.1 131.9 86 132 86C132.1 86 132.2 86 132.3 86C132.7 85.9 132.9 85.7 133.1 85.2L135.6 79.4C135.7 79.1 135.8 79 135.9 79C136 79 136.1 79.1 136.2 79.3C136.4 79.8 138 83.6 138.6 85C139 85.8 139.2 86 139.4 86C139.5 86 139.7 86 139.8 86C139.9 86 139.9 86 139.9 86.1C139.9 86.2 139.8 86.2 139.5 86.2C139.2 86.2 138.5 86.2 137.7 86.2C137.5 86.2 137.4 86.2 137.4 86.1C137.4 86.1 137.4 86 137.5 86C137.6 86 137.6 85.9 137.6 85.8L136.9 83.9C136.9 83.8 136.8 83.8 136.8 83.8H134.6V83.8ZM136.6 83.3C136.7 83.3 136.7 83.2 136.6 83.3L135.7 80.9V80.8C135.7 80.8 135.7 80.9 135.6 80.9L134.7 83.2V83.3H136.6Z" fill="#211F1A"/>
<path d="M140.4 86C140.2 85.9 140.2 85.9 140.2 85.7C140.2 85.2 140.2 84.6 140.3 84.5C140.3 84.4 140.3 84.3 140.4 84.3C140.5 84.3 140.5 84.4 140.5 84.5C140.5 84.6 140.5 84.8 140.6 85C140.8 85.7 141.5 85.9 142.1 85.9C142.9 85.9 143.4 85.4 143.4 84.7C143.4 84.3 143.3 83.9 142.4 83.4L141.8 83.1C140.7 82.4 140.3 81.8 140.3 81C140.3 79.9 141.4 79.1 142.7 79.1C143.3 79.1 143.8 79.2 144.1 79.3C144.2 79.3 144.2 79.4 144.2 79.4C144.2 79.5 144.2 79.8 144.2 80.5C144.2 80.7 144.2 80.8 144.1 80.8C144 80.8 144 80.7 144 80.6C144 80.5 144 80.2 143.7 80C143.6 79.8 143.3 79.6 142.6 79.6C141.9 79.6 141.3 80 141.3 80.6C141.3 81 141.5 81.3 142.3 81.8L142.7 82C144 82.7 144.4 83.4 144.4 84.3C144.4 85 144.1 85.5 143.4 86C143 86.3 142.3 86.4 141.8 86.4C141.4 86.2 140.9 86.2 140.4 86Z" fill="#211F1A"/>
<path d="M150.1 81.8C150.1 80.4 150.1 80.1 150.1 79.8C150.1 79.5 150 79.4 149.7 79.3C149.6 79.3 149.4 79.3 149.3 79.3C149.2 79.3 149.1 79.3 149.1 79.2C149.1 79.1 149.2 79.1 149.3 79.1C149.8 79.1 150.5 79.1 150.7 79.1C150.9 79.1 151.5 79.1 151.9 79.1C152 79.1 152.1 79.1 152.1 79.2C152.1 79.3 152 79.3 151.9 79.3C151.8 79.3 151.7 79.3 151.6 79.3C151.3 79.3 151.3 79.5 151.3 79.8C151.3 80.1 151.3 80.4 151.3 81.8V83.5C151.3 83.9 151.3 84.3 151.3 84.8C151.3 85.3 151.3 85.9 151.1 86.4C150.9 87 150.3 87.6 149.4 88.2C149.3 88.3 149.1 88.3 148.9 88.4C148.8 88.4 148.7 88.4 148.7 88.4C148.7 88.4 148.6 88.4 148.6 88.3C148.6 88.2 148.7 88.2 148.8 88.1C148.9 88 149.1 87.9 149.3 87.7C150 87 150 86.1 150 84.2L150.1 81.8Z" fill="#211F1A"/>
<path d="M153.8 81.8C153.8 80.4 153.8 80.1 153.8 79.8C153.8 79.5 153.7 79.4 153.4 79.3C153.3 79.3 153.1 79.3 153 79.3C152.9 79.3 152.8 79.3 152.8 79.2C152.8 79.1 152.9 79.1 153 79.1C153.5 79.1 154.1 79.1 154.4 79.1C154.6 79.1 155.3 79.1 155.6 79.1C155.7 79.1 155.8 79.1 155.8 79.2C155.8 79.3 155.7 79.3 155.6 79.3C155.5 79.3 155.4 79.3 155.3 79.3C155 79.3 155 79.5 155 79.8C155 80.1 155 80.4 155 81.8V83.1C155 84.5 155.3 85 155.7 85.4C156.1 85.7 156.6 85.8 156.9 85.8C157.3 85.8 157.8 85.7 158.2 85.3C158.7 84.8 158.8 84 158.8 83V81.8C158.8 80.4 158.8 80.1 158.8 79.8C158.8 79.5 158.7 79.4 158.4 79.3C158.3 79.3 158.1 79.3 158.1 79.3C158 79.3 157.9 79.3 157.9 79.2C157.9 79.1 158 79.1 158.1 79.1C158.6 79.1 159.2 79.1 159.2 79.1C159.3 79.1 160 79.1 160.3 79.1C160.4 79.1 160.5 79.1 160.5 79.2C160.5 79.3 160.4 79.3 160.3 79.3C160.2 79.3 160.1 79.3 160 79.3C159.7 79.3 159.7 79.5 159.7 79.8C159.7 80.1 159.7 80.4 159.7 81.8V82.8C159.7 83.8 159.6 84.9 158.8 85.6C158.1 86.2 157.4 86.3 156.8 86.3C156.3 86.3 155.3 86.3 154.6 85.7C154.1 85.3 153.7 84.6 153.7 83.2L153.8 81.8Z" fill="#211F1A"/>
<path d="M162.2 81.8C162.2 80.4 162.2 80.1 162.2 79.8C162.2 79.5 162.1 79.4 161.8 79.3C161.7 79.3 161.5 79.3 161.4 79.3C161.3 79.3 161.2 79.3 161.2 79.2C161.2 79.1 161.3 79.1 161.4 79.1C161.9 79.1 162.5 79.1 162.7 79.1C163 79.1 163.9 79.1 164.2 79.1C164.8 79.1 165.5 79.2 166 79.5C166.3 79.7 166.7 80.2 166.7 80.8C166.7 81.5 166.3 82.1 165.4 82.9C166.3 83.9 166.9 84.8 167.5 85.4C168 85.9 168.4 86 168.5 86C168.6 86 168.7 86 168.7 86L168.8 86.1C168.8 86.2 168.7 86.2 168.6 86.2H167.7C167.2 86.2 166.9 86.1 166.7 86C166.3 85.8 165.9 85.4 165.4 84.6C165 84.1 164.6 83.5 164.5 83.3C164.4 83.2 164.4 83.2 164.3 83.2H163.4C163.4 83.2 163.3 83.2 163.3 83.3V83.4C163.3 84.3 163.3 85 163.4 85.4C163.4 85.7 163.5 85.8 163.8 85.9C163.9 85.9 164.1 85.9 164.3 85.9C164.4 85.9 164.4 86 164.4 86C164.4 86.1 164.3 86.1 164.2 86.1C163.6 86.1 162.8 86.1 162.7 86.1C162.5 86.1 161.9 86.1 161.5 86.1C161.4 86.1 161.3 86.1 161.3 86C161.3 86 161.3 85.9 161.5 85.9C161.6 85.9 161.8 85.9 161.8 85.9C162 85.9 162.1 85.7 162.1 85.4C162.1 85 162.1 84.3 162.1 83.4L162.2 81.8ZM163.4 82.5C163.4 82.6 163.4 82.6 163.5 82.7C163.7 82.8 164 82.8 164.2 82.8C164.6 82.8 164.7 82.8 164.9 82.6C165.2 82.4 165.5 82 165.5 81.2C165.5 79.9 164.6 79.5 164 79.5C163.7 79.5 163.5 79.5 163.4 79.5C163.3 79.5 163.3 79.6 163.3 79.6V82.5H163.4Z" fill="#211F1A"/>
<path d="M169.7 81.8C169.7 80.4 169.7 80.1 169.7 79.8C169.7 79.5 169.6 79.4 169.4 79.3C169.3 79.3 169.2 79.3 169.1 79.3C169 79.3 168.9 79.3 168.9 79.2C168.9 79.1 169 79.1 169.1 79.1C169.5 79.1 170.1 79.1 170.4 79.1C170.6 79.1 171.3 79.1 171.6 79.1C171.7 79.1 171.8 79.1 171.8 79.2C171.8 79.3 171.7 79.3 171.6 79.3C171.5 79.3 171.4 79.3 171.3 79.3C171 79.3 171 79.5 170.9 79.8C170.9 80.1 170.9 80.4 170.9 81.8V83.4C170.9 84.3 170.9 85 170.9 85.4C170.9 85.7 171 85.8 171.3 85.8C171.4 85.8 171.6 85.8 171.8 85.8C171.9 85.8 172 85.9 172 85.9C172 86 171.9 86 171.8 86C171.2 86 170.5 86 170.2 86C170 86 169.3 86 169 86C168.9 86 168.8 86 168.8 85.9C168.8 85.9 168.8 85.8 169 85.8C169.1 85.8 169.3 85.8 169.3 85.8C169.5 85.8 169.6 85.6 169.6 85.4C169.6 85 169.6 84.3 169.6 83.4V81.8H169.7ZM172.1 77.4C172.2 77.5 172.1 77.6 172 77.6C171.9 77.6 171.8 77.6 171.6 77.6C171 77.7 170.1 78 169.7 78.2C169.6 78.2 169.5 78.3 169.5 78.3C169.5 78.3 169.4 78.3 169.4 78.2C169.4 78.2 169.4 78.1 169.5 78.1C169.9 77.7 171.1 76.8 171.2 76.7C171.3 76.6 171.4 76.6 171.4 76.6C171.5 76.6 171.5 76.6 171.6 76.7C171.9 76.9 172 77.1 172.1 77.4Z" fill="#211F1A"/>
<path d="M174.1 81.8C174.1 80.4 174.1 80.1 174.1 79.8C174.1 79.5 174 79.4 173.7 79.3C173.6 79.3 173.5 79.3 173.3 79.3C173.2 79.3 173.1 79.3 173.1 79.2C173.1 79.1 173.2 79.1 173.3 79.1C173.8 79.1 174.4 79.1 174.7 79.1C175 79.1 175.7 79.1 176.3 79.1C177.5 79.1 179.1 79.1 180.2 80.2C180.7 80.7 181.1 81.4 181.1 82.6C181.1 83.8 180.6 84.6 180.1 85.2C179.7 85.6 178.6 86.3 176.9 86.3C176.6 86.3 176.1 86.3 175.8 86.2C175.4 86.2 175.1 86.1 174.8 86.1C174.7 86.1 174.5 86.1 174.3 86.1C174.1 86.1 173.8 86.1 173.6 86.1C173.5 86.1 173.4 86.1 173.4 86C173.4 86 173.4 85.9 173.6 85.9C173.8 85.9 173.9 85.9 173.9 85.9C174.1 85.9 174.2 85.7 174.2 85.4C174.2 85 174.2 84.3 174.2 83.4L174.1 81.8ZM175.4 82.8C175.4 83.8 175.4 84.5 175.4 84.7C175.4 84.9 175.4 85.3 175.5 85.4C175.6 85.6 176 85.8 176.8 85.8C177.7 85.8 178.3 85.6 178.9 85.2C179.5 84.7 179.7 83.9 179.7 82.9C179.7 81.7 179.2 81 178.8 80.6C177.9 79.8 176.9 79.7 176.1 79.7C175.9 79.7 175.6 79.7 175.5 79.8C175.4 79.8 175.4 79.9 175.4 80C175.4 80.3 175.4 81.1 175.4 81.8V82.8Z" fill="#211F1A"/>
<path d="M183.1 81.8C183.1 80.4 183.1 80.1 183.1 79.8C183.1 79.5 183 79.4 182.8 79.3C182.7 79.3 182.6 79.3 182.5 79.3C182.4 79.3 182.3 79.3 182.3 79.2C182.3 79.1 182.4 79.1 182.5 79.1C182.9 79.1 183.5 79.1 183.8 79.1C184.1 79.1 184.7 79.1 185 79.1C185.1 79.1 185.2 79.1 185.2 79.2C185.2 79.3 185.1 79.3 185 79.3C184.9 79.3 184.8 79.3 184.7 79.3C184.4 79.3 184.4 79.5 184.3 79.8C184.3 80.1 184.3 80.4 184.3 81.8V83.4C184.3 84.3 184.3 85 184.3 85.4C184.3 85.7 184.4 85.8 184.7 85.8C184.8 85.8 185 85.8 185.2 85.8C185.3 85.8 185.4 85.9 185.4 85.9C185.4 86 185.3 86 185.2 86C184.6 86 183.9 86 183.6 86C183.4 86 182.7 86 182.4 86C182.3 86 182.2 86 182.2 85.9C182.2 85.9 182.2 85.8 182.4 85.8C182.5 85.8 182.7 85.8 182.7 85.8C182.9 85.8 183 85.6 183 85.4C183.1 85 183.1 84.3 183.1 83.4V81.8Z" fill="#211F1A"/>
<path d="M187.5 85.2C186.5 84.4 186.3 83.4 186.3 82.5C186.3 81.9 186.5 80.8 187.4 80C188.1 79.4 189 79 190.4 79C191 79 191.4 79 191.8 79.1C192.2 79.1 192.5 79.2 192.8 79.3C192.9 79.3 192.9 79.3 192.9 79.4C192.9 79.5 192.9 79.6 192.9 79.9C192.9 80.2 192.9 80.7 192.9 80.9C192.9 81 192.8 81.1 192.8 81.1C192.8 81.1 192.7 81 192.7 80.9C192.7 80.6 192.6 80.3 192.3 80C192 79.7 191.3 79.5 190.4 79.5C189.6 79.5 189 79.7 188.6 80C187.9 80.6 187.7 81.5 187.7 82.4C187.7 84.6 189.4 85.6 190.7 85.6C191.6 85.6 192 85.5 192.4 85.1C192.6 84.9 192.7 84.7 192.7 84.5C192.7 84.4 192.7 84.3 192.8 84.3C192.9 84.3 192.9 84.4 192.9 84.5C192.9 84.6 192.8 85.4 192.7 85.7C192.7 85.9 192.6 85.9 192.4 86C192 86.2 191.3 86.2 190.7 86.2C189.5 86.2 188.4 86 187.5 85.2Z" fill="#211F1A"/>
<path d="M195.5 83.8C195.4 83.8 195.4 83.8 195.5 83.8L194.9 85.1C194.8 85.3 194.8 85.6 194.8 85.7C194.8 85.9 194.9 86 195.2 86H195.3C195.4 86 195.4 86 195.4 86.1C195.4 86.2 195.3 86.2 195.2 86.2C194.9 86.2 194.4 86.2 194.1 86.2C194 86.2 193.5 86.2 193 86.2C192.9 86.2 192.8 86.2 192.8 86.1C192.8 86.1 192.8 86 192.9 86C193 86 193.1 86 193.2 86C193.6 85.9 193.8 85.7 194 85.2L196.5 79.4C196.6 79.1 196.7 79 196.8 79C196.9 79 197 79.1 197.1 79.3C197.3 79.8 198.9 83.6 199.5 85C199.9 85.8 200.1 86 200.3 86C200.4 86 200.6 86 200.6 86C200.6 86 200.7 86 200.7 86.1C200.7 86.2 200.6 86.2 200.3 86.2C200 86.2 199.3 86.2 198.5 86.2C198.3 86.2 198.2 86.2 198.2 86.1C198.2 86.1 198.2 86 198.3 86C198.4 86 198.4 85.9 198.4 85.8L197.6 83.9C197.6 83.8 197.5 83.8 197.5 83.8H195.5V83.8ZM197.5 83.3C197.6 83.3 197.6 83.2 197.5 83.3L196.6 80.9V80.8C196.6 80.8 196.6 80.9 196.5 80.9L195.6 83.2V83.3H197.5Z" fill="#211F1A"/>
<path d="M201.3 86C201.1 85.9 201.1 85.9 201.1 85.7C201.1 85.2 201.1 84.6 201.2 84.5C201.2 84.4 201.2 84.3 201.3 84.3C201.4 84.3 201.4 84.4 201.4 84.5C201.4 84.6 201.4 84.8 201.5 85C201.7 85.7 202.4 85.9 203 85.9C203.8 85.9 204.3 85.4 204.3 84.7C204.3 84.3 204.2 83.9 203.3 83.4L202.7 83.1C201.6 82.4 201.2 81.8 201.2 81C201.2 79.9 202.3 79.1 203.6 79.1C204.2 79.1 204.7 79.2 205 79.3C205.1 79.3 205.1 79.4 205.1 79.4C205.1 79.5 205.1 79.8 205.1 80.5C205.1 80.7 205.1 80.8 205 80.8C204.9 80.8 204.9 80.7 204.9 80.6C204.9 80.5 204.9 80.2 204.6 80C204.5 79.8 204.2 79.6 203.5 79.6C202.8 79.6 202.2 80 202.2 80.6C202.2 81 202.4 81.3 203.2 81.8L203.6 82C204.9 82.7 205.3 83.4 205.3 84.3C205.3 85 205 85.5 204.3 86C203.8 86.3 203.2 86.4 202.7 86.4C202.3 86.2 201.7 86.2 201.3 86Z" fill="#211F1A"/>
<path d="M212 83.7C212 83.2 211.9 83 211.8 82.7C211.7 82.6 210.4 80.5 210.1 80C209.9 79.7 209.7 79.5 209.5 79.3C209.4 79.2 209.2 79.2 209.1 79.2C209 79.2 209 79.2 209 79.1C209 79 209.1 79 209.2 79C209.4 79 210.1 79 210.4 79C210.6 79 211.1 79 211.5 79C211.6 79 211.6 79 211.6 79.1C211.6 79.2 211.5 79.2 211.4 79.2C211.3 79.2 211.3 79.3 211.3 79.3C211.3 79.4 211.4 79.5 211.4 79.6C211.6 79.9 212.8 82 213 82.3C213.1 82.1 214.3 80.1 214.4 79.8C214.5 79.6 214.6 79.4 214.6 79.3C214.6 79.2 214.6 79.1 214.4 79.1C214.3 79.1 214.2 79.1 214.2 79C214.2 78.9 214.3 78.9 214.4 78.9C214.7 78.9 215.1 78.9 215.3 78.9C215.5 78.9 216.1 78.9 216.3 78.9C216.4 78.9 216.5 78.9 216.5 79C216.5 79.1 216.4 79.1 216.3 79.1C216.2 79.1 216 79.1 215.9 79.2C215.7 79.3 215.6 79.4 215.4 79.6C215.1 80 213.7 82.2 213.5 82.6C213.4 82.9 213.4 83.2 213.4 83.5V84.2C213.4 84.4 213.4 84.7 213.4 85.1C213.4 85.4 213.5 85.5 213.8 85.6C213.9 85.6 214.1 85.6 214.3 85.6C214.4 85.6 214.5 85.7 214.5 85.7C214.5 85.8 214.4 85.8 214.3 85.8C213.7 85.8 213.1 85.8 212.8 85.8C212.6 85.8 211.9 85.8 211.6 85.8C211.5 85.8 211.4 85.8 211.4 85.7C211.4 85.7 211.4 85.6 211.6 85.6C211.7 85.6 211.9 85.6 211.9 85.6C212.1 85.6 212.2 85.4 212.2 85.1C212.2 84.7 212.2 84.3 212.2 84.2L212 83.7Z" fill="#211F1A"/>
<path d="M220.1 86C219.9 85.9 219.9 85.9 219.9 85.7C219.9 85.2 219.9 84.6 219.9 84.5C219.9 84.4 220 84.3 220 84.3C220.1 84.3 220.1 84.4 220.1 84.5C220.1 84.6 220.1 84.8 220.2 85C220.4 85.7 221.1 85.9 221.7 85.9C222.5 85.9 223 85.4 223 84.7C223 84.3 222.9 83.9 222 83.4L221.5 83.1C220.4 82.4 220 81.8 220 81C220 79.9 221.1 79.1 222.4 79.1C223 79.1 223.5 79.2 223.8 79.3C223.9 79.3 223.9 79.4 223.9 79.4C223.9 79.5 223.9 79.8 223.9 80.5C223.9 80.7 223.9 80.8 223.8 80.8C223.7 80.8 223.7 80.7 223.7 80.6C223.7 80.5 223.6 80.2 223.4 80C223.3 79.8 223 79.6 222.3 79.6C221.6 79.6 221 80 221 80.6C221 81 221.2 81.3 222 81.8L222.4 82C223.7 82.7 224.1 83.4 224.1 84.3C224.1 85 223.8 85.5 223.1 86C222.7 86.3 222 86.4 221.5 86.4C221.1 86.2 220.5 86.2 220.1 86Z" fill="#211F1A"/>
<path d="M225.5 82.6C225.5 81 226.6 79 229.5 79C231.9 79 233.4 80.3 233.4 82.5C233.4 84.7 231.8 86.3 229.4 86.3C226.6 86.2 225.5 84.3 225.5 82.6ZM232 82.8C232 80.8 230.8 79.5 229.2 79.5C228.1 79.5 226.9 80.1 226.9 82.4C226.9 84.3 228 85.8 229.8 85.8C230.5 85.7 232 85.4 232 82.8Z" fill="#211F1A"/>
<path d="M235.7 85.2C234.7 84.4 234.5 83.4 234.5 82.5C234.5 81.9 234.7 80.8 235.6 80C236.3 79.4 237.2 79 238.6 79C239.2 79 239.6 79 240 79.1C240.3 79.1 240.7 79.2 241 79.3C241.1 79.3 241.1 79.3 241.1 79.4C241.1 79.5 241.1 79.6 241.1 79.9C241.1 80.2 241.1 80.7 241.1 80.9C241.1 81 241.1 81.1 241 81.1C240.9 81.1 240.9 81 240.9 80.9C240.9 80.6 240.8 80.3 240.5 80C240.2 79.7 239.5 79.5 238.7 79.5C237.9 79.5 237.3 79.7 236.9 80C236.2 80.6 236 81.5 236 82.4C236 84.6 237.7 85.6 239 85.6C239.9 85.6 240.3 85.5 240.7 85.1C240.9 84.9 241 84.7 241 84.5C241 84.4 241 84.3 241.1 84.3C241.2 84.3 241.2 84.4 241.2 84.5C241.2 84.6 241.1 85.4 241 85.7C240.9 85.9 240.9 85.9 240.7 86C240.3 86.2 239.6 86.2 239 86.2C237.7 86.2 236.6 86 235.7 85.2Z" fill="#211F1A"/>
<path d="M243.2 81.8C243.2 80.4 243.2 80.1 243.2 79.8C243.2 79.5 243.1 79.4 242.9 79.3C242.8 79.3 242.7 79.3 242.6 79.3C242.5 79.3 242.4 79.3 242.4 79.2C242.4 79.1 242.5 79.1 242.6 79.1C243 79.1 243.6 79.1 243.9 79.1C244.2 79.1 244.8 79.1 245.1 79.1C245.2 79.1 245.3 79.1 245.3 79.2C245.3 79.3 245.2 79.3 245.1 79.3C245 79.3 244.9 79.3 244.8 79.3C244.5 79.3 244.5 79.5 244.4 79.8C244.4 80.1 244.4 80.4 244.4 81.8V83.4C244.4 84.3 244.4 85 244.4 85.4C244.4 85.7 244.5 85.8 244.8 85.8C244.9 85.8 245.1 85.8 245.3 85.8C245.4 85.8 245.5 85.9 245.5 85.9C245.5 86 245.4 86 245.3 86C244.7 86 244 86 243.7 86C243.5 86 242.8 86 242.5 86C242.4 86 242.3 86 242.3 85.9C242.3 85.9 242.3 85.8 242.5 85.8C242.6 85.8 242.8 85.8 242.8 85.8C243 85.8 243.1 85.6 243.1 85.4C243.2 85 243.2 84.3 243.2 83.4V81.8Z" fill="#211F1A"/>
<path d="M248.1 83.8C248 83.8 248 83.8 248.1 83.8L247.5 85.1C247.4 85.3 247.4 85.6 247.4 85.7C247.4 85.9 247.5 86 247.8 86H247.9C248 86 248 86 248 86.1C248 86.2 247.9 86.2 247.8 86.2C247.5 86.2 247 86.2 246.7 86.2C246.6 86.2 246.1 86.2 245.6 86.2C245.5 86.2 245.4 86.2 245.4 86.1C245.4 86.1 245.4 86 245.5 86C245.6 86 245.7 86 245.8 86C246.2 85.9 246.4 85.7 246.6 85.2L249.1 79.4C249.2 79.1 249.3 79 249.4 79C249.5 79 249.6 79.1 249.7 79.3C249.9 79.8 251.5 83.6 252.1 85C252.5 85.8 252.7 86 252.9 86C253 86 253.2 86 253.2 86C253.3 86 253.3 86 253.3 86.1C253.3 86.2 253.2 86.2 252.9 86.2C252.6 86.2 251.9 86.2 251.1 86.2C250.9 86.2 250.8 86.2 250.8 86.1C250.8 86.1 250.8 86 250.9 86C251 86 251 85.9 251 85.8L250.3 83.9C250.3 83.8 250.2 83.8 250.2 83.8H248.1V83.8ZM250.1 83.3C250.2 83.3 250.2 83.2 250.1 83.3L249.2 80.9C249.2 80.9 249.2 80.8 249.1 80.8C249.1 80.8 249.1 80.9 249 80.9L248.1 83.2V83.3H250.1Z" fill="#211F1A"/>
<path d="M255.8 83.4C255.8 84.6 255.8 85.2 256 85.3C256.2 85.4 256.5 85.5 257.3 85.5C257.8 85.5 258.2 85.5 258.4 85.2C258.5 85.1 258.6 84.8 258.6 84.7C258.6 84.6 258.6 84.6 258.7 84.6C258.8 84.6 258.8 84.7 258.8 84.8C258.8 84.9 258.7 85.6 258.7 85.9C258.6 86.1 258.6 86.2 258.1 86.2C257.4 86.2 256.9 86.2 256.4 86.2C255.9 86.2 255.5 86.2 255.1 86.2C255 86.2 254.8 86.2 254.6 86.2C254.4 86.2 254.1 86.2 253.9 86.2C253.8 86.2 253.7 86.2 253.7 86.1C253.7 86.1 253.7 86 253.9 86C254 86 254.2 86 254.2 86C254.4 86 254.5 85.8 254.5 85.5C254.5 85.1 254.5 84.4 254.5 83.5V81.9C254.5 80.5 254.5 80.2 254.5 79.9C254.5 79.6 254.4 79.5 254.1 79.4C254 79.4 253.9 79.4 253.8 79.4C253.7 79.4 253.6 79.4 253.6 79.3C253.6 79.2 253.7 79.2 253.8 79.2C254.2 79.2 254.8 79.2 255.1 79.2C255.3 79.2 256.1 79.2 256.5 79.2C256.6 79.2 256.7 79.2 256.7 79.3C256.7 79.4 256.6 79.4 256.5 79.4C256.4 79.4 256.2 79.4 256.1 79.4C255.8 79.4 255.8 79.6 255.7 79.9C255.7 80.2 255.7 80.5 255.7 81.9L255.8 83.4Z" fill="#211F1A"/>
<path d="M260.5 81.8C260.5 80.4 260.5 80.1 260.5 79.8C260.5 79.5 260.4 79.4 260.1 79.3C260 79.3 259.9 79.3 259.7 79.3C259.6 79.3 259.5 79.3 259.5 79.2C259.5 79.1 259.6 79.1 259.7 79.1C260.2 79.1 260.8 79.1 261.1 79.1C261.4 79.1 263.5 79.1 263.7 79.1C263.9 79.1 264 79.1 264.1 79.1C264.2 79.1 264.2 79.1 264.3 79.1C264.4 79.1 264.4 79.1 264.4 79.2C264.4 79.3 264.3 79.4 264.3 79.8C264.3 79.9 264.3 80.3 264.2 80.4C264.2 80.4 264.2 80.6 264.1 80.6C264 80.6 264 80.6 264 80.5C264 80.4 264 80.3 263.9 80.2C263.8 80 263.7 79.9 263.3 79.9C263.1 79.9 262 79.9 261.8 79.9C261.8 79.9 261.7 79.9 261.7 80V82C261.7 82 261.7 82.1 261.8 82.1C262 82.1 263.3 82.1 263.5 82.1C263.7 82.1 263.9 82.1 264 82C264.1 81.9 264.1 81.9 264.2 81.9C264.2 81.9 264.3 81.9 264.3 82C264.3 82.1 264.3 82.2 264.2 82.7C264.2 82.9 264.2 83.3 264.2 83.3C264.2 83.4 264.2 83.5 264.1 83.5C264 83.5 264 83.5 264 83.4C264 83.3 264 83.2 264 83.1C263.9 82.9 263.8 82.8 263.5 82.7C263.3 82.7 262.2 82.7 262 82.7C262 82.7 261.9 82.7 261.9 82.8V83.5C261.9 83.8 261.9 84.6 261.9 84.9C261.9 85.5 262.2 85.7 263.2 85.7C263.5 85.7 263.9 85.7 264.1 85.6C264.3 85.5 264.4 85.3 264.5 84.9C264.5 84.8 264.5 84.8 264.6 84.8C264.7 84.8 264.7 84.9 264.7 85C264.7 85.2 264.6 85.9 264.6 86C264.5 86.2 264.4 86.2 264.1 86.2C263.4 86.2 262.8 86.2 262.3 86.2C261.8 86.2 261.5 86.2 261.2 86.2C261.1 86.2 260.9 86.2 260.7 86.2C260.5 86.2 260.2 86.2 260 86.2C259.9 86.2 259.8 86.2 259.8 86.1C259.8 86.1 259.8 86 260 86C260.1 86 260.3 86 260.3 86C260.5 86 260.6 85.8 260.6 85.5C260.6 85.1 260.6 84.4 260.6 83.5L260.5 81.8Z" fill="#211F1A"/>
<path d="M266.3 86C266.1 85.9 266.1 85.9 266.1 85.7C266.1 85.2 266.2 84.6 266.2 84.5C266.2 84.4 266.3 84.3 266.3 84.3C266.4 84.3 266.4 84.4 266.4 84.5C266.4 84.6 266.4 84.8 266.5 85C266.7 85.7 267.4 85.9 268 85.9C268.8 85.9 269.3 85.4 269.3 84.7C269.3 84.3 269.2 83.9 268.3 83.4L267.7 83.1C266.6 82.4 266.2 81.8 266.2 81C266.2 79.9 267.3 79.1 268.6 79.1C269.2 79.1 269.7 79.2 270 79.3C270.1 79.3 270.1 79.4 270.1 79.4C270.1 79.5 270.1 79.8 270.1 80.5C270.1 80.7 270.1 80.8 270 80.8C269.9 80.8 269.9 80.7 269.9 80.6C269.9 80.5 269.9 80.2 269.6 80C269.5 79.8 269.2 79.6 268.5 79.6C267.8 79.6 267.2 80 267.2 80.6C267.2 81 267.4 81.3 268.2 81.8L268.6 82C269.9 82.7 270.3 83.4 270.3 84.3C270.3 85 270 85.5 269.3 86C268.8 86.3 268.2 86.4 267.7 86.4C267.3 86.2 266.7 86.2 266.3 86Z" fill="#211F1A"/>
<path d="M99.4 59.7C103.5 63.3 108.7 64.6 114.9 64.6C117.8 64.6 121.2 64.3 123 63.6C123.8 63.3 124 63.1 124.2 62.3C124.6 60.7 125.2 56.8 125.2 56.3C125.2 55.9 125.1 55.6 124.8 55.6C124.5 55.6 124.4 55.8 124.2 56.5C124 57.3 123.4 58.6 122.7 59.5C120.9 61.6 118.4 62 114.4 62C108.4 62 100.2 56.7 100.2 45.9C100.2 41.5 101.1 37.2 104.4 34.2C106.4 32.4 109 31.4 112.9 31.4C117.1 31.4 120.6 32.6 122.1 34.2C123.2 35.4 123.8 37 123.8 38.4C123.8 39 123.9 39.4 124.2 39.4C124.6 39.4 124.7 39 124.7 38.4C124.8 37.5 124.7 35 124.8 33.5C124.9 31.9 125 31.4 125 31C125 30.7 124.8 30.5 124.3 30.5C122.9 30.4 121.5 30 119.8 29.7C117.7 29.4 116.1 29.3 113.3 29.3C106.6 29.3 102.3 31.1 99 34.1C94.7 38.1 93.7 43.4 93.7 46.5C93.8 50.7 94.9 55.8 99.4 59.7Z" fill="black"/>
<path d="M131.6 30.6C132.1 30.6 132.7 30.6 133.2 30.8C134.2 31 134.6 31.8 134.7 33.3C134.8 34.8 134.8 36 134.8 42.9V50.9C134.8 55.3 134.8 58.9 134.6 60.7C134.5 62 134.2 62.8 133.3 63C132.9 63.1 132.3 63.2 131.7 63.2C131.2 63.2 131 63.3 131 63.6C131 63.9 131.3 64 131.9 64C133.7 64 136.6 63.9 137.6 63.9C138.8 63.9 141.7 64 144.6 64C145.1 64 145.5 63.9 145.5 63.6C145.5 63.4 145.3 63.2 144.8 63.2C144.1 63.2 143.1 63.1 142.5 63C141.1 62.8 140.8 62 140.7 60.8C140.5 58.9 140.5 55.3 140.5 50.9V42.9C140.5 36 140.5 34.8 140.6 33.3C140.7 31.7 141.1 31 142.3 30.7C142.8 30.6 143.2 30.6 143.7 30.6C144.1 30.6 144.4 30.5 144.4 30.2C144.4 29.9 144.1 29.8 143.4 29.8C141.7 29.8 139 29.9 137.9 29.9C136.6 29.9 133.7 29.8 132 29.8C131.3 29.8 130.9 29.9 130.9 30.2C130.8 30.5 131.1 30.6 131.6 30.6Z" fill="black"/>
<path d="M161 57.6C161 55.3 160.9 53.2 160.9 51.2V42.8C160.9 35.9 160.9 34.7 161 33.2C161.1 31.6 161.4 30.9 162.7 30.6C163.2 30.5 163.5 30.5 164 30.5C164.5 30.5 164.8 30.4 164.8 30.1C164.8 29.8 164.5 29.7 163.8 29.7C162 29.7 159.2 29.8 158.1 29.8C156.9 29.8 154.1 29.7 151.7 29.7C151 29.7 150.7 29.8 150.7 30.1C150.7 30.4 151 30.5 151.5 30.5C152.1 30.5 152.9 30.5 153.3 30.6C154.8 30.9 155.1 31.6 155.2 33.2C155.3 34.7 155.3 35.9 155.3 42.8V55.8C155.3 64.7 155.3 69.2 151.9 72.7C151 73.6 150.3 74.1 149.7 74.4C148.9 74.8 148.7 75 148.7 75.2C148.7 75.4 148.9 75.6 149.1 75.6C149.3 75.6 149.7 75.5 150 75.3C151 74.9 151.7 74.5 152.3 74.1C156.6 71.4 159 68.3 160 65.6C160.8 63.1 161 60.2 161 57.6Z" fill="black"/>
<path d="M177.1 61.5C180.4 64.5 184.7 64.6 187.1 64.6C190 64.6 193.3 64.1 196.5 61.3C200.3 58 200.8 52.7 200.8 47.7V42.9C200.8 36 200.8 34.8 200.9 33.3C201 31.7 201.4 31 202.6 30.7C203.1 30.6 203.4 30.6 203.9 30.6C204.4 30.6 204.7 30.5 204.7 30.2C204.7 29.9 204.4 29.8 203.7 29.8C201.9 29.8 199.1 29.9 198.6 29.9C198.6 29.9 195.7 29.8 193.4 29.8C192.8 29.8 192.4 29.9 192.4 30.2C192.4 30.5 192.7 30.6 193.2 30.6C193.7 30.6 194.5 30.6 194.8 30.7C196.3 31 196.7 31.7 196.7 33.3C196.8 34.8 196.8 36 196.8 42.9V48.5C196.8 53.2 196.7 57.2 194.2 59.7C192.4 61.5 189.9 62.1 188 62.1C186.5 62.1 184.4 61.9 182.4 60.2C180.2 58.4 178.9 55.6 178.9 49.1V42.8C178.9 35.9 178.9 34.7 179 33.2C179.1 31.6 179.4 30.9 180.7 30.6C181.2 30.5 181.5 30.5 182 30.5C182.4 30.5 182.7 30.4 182.7 30.1C182.7 29.8 182.4 29.7 181.7 29.7C180.1 29.7 177.2 29.8 176.1 29.8C174.7 29.8 171.9 29.7 169.5 29.7C168.8 29.7 168.5 29.8 168.5 30.1C168.5 30.4 168.8 30.5 169.3 30.5C169.9 30.5 170.7 30.5 171 30.6C172.5 30.9 172.8 31.6 172.9 33.2C173 34.7 173 35.9 173 42.8V49.4C173 56 174.8 59.4 177.1 61.5Z" fill="black"/>
<path d="M216.9 62.4C213.5 62.4 210.3 61.2 209.1 57.8C208.8 57 208.6 56.1 208.6 55.5C208.6 55.1 208.6 54.7 208.1 54.7C207.7 54.7 207.5 55.2 207.4 55.9C207.4 56.6 207.1 59.4 207.1 61.8C207.1 62.8 207.3 63 208.1 63.4C210.4 64.3 212.9 64.6 216 64.6C218.9 64.6 221.9 64.2 224.7 62.7C228.6 60.6 229.8 57.5 229.8 54.8C229.8 50.5 227.5 47.4 220.9 43.3L219.4 42.3C214.9 39.4 213.6 37.9 213.6 35.8C213.6 33.1 216 31.1 220.1 31.1C223.6 31.1 225.2 32.5 226 33.3C227.1 34.5 227.4 35.9 227.4 36.3C227.4 36.8 227.6 37.1 227.9 37.1C228.3 37.1 228.5 36.7 228.5 35.7C228.5 32.2 228.7 30.9 228.7 30.3C228.7 30 228.4 29.9 227.9 29.8C226.5 29.5 224.2 29 220.7 29C213.1 29 208.1 32.6 208.1 37.5C208.1 41.2 210.2 44.3 216.2 48.2L218.7 49.8C223.2 52.7 224 54.8 224 57C224.3 59.7 221.8 62.4 216.9 62.4Z" fill="black"/>
<path d="M252.5 29.1C238.9 29.1 233.8 39.1 233.8 46.8C233.8 54.8 239 64.5 252 64.5C263.5 64.5 270.7 56.3 270.7 46C270.7 35.7 263.7 29.1 252.5 29.1ZM253.9 62.3C245.2 62.3 240 54.8 240 45.4C240 34.1 245.9 31.2 251.1 31.2C258.5 31.2 264.3 37.5 264.3 47.6C264.4 60.8 257.1 62.3 253.9 62.3Z" fill="black"/>
<path d="M93.9 3.69999C94.3 3.69999 94.8 3.69999 95 3.79999C96 3.99999 96.2 4.49999 96.3 5.49999C96.4 6.39999 96.4 7.19999 96.4 11.7V16.8C96.4 19.6 96.4 21.8 96.2 23C96.1 23.8 95.9 24.5 95.4 24.6C95.1 24.7 94.8 24.7 94.4 24.7C94.1 24.7 94 24.8 94 24.9C94 25.1 94.2 25.2 94.6 25.2C95.7 25.2 97.6 25.1 98.3 25.1C99.1 25.1 100.9 25.2 102.7 25.2C103.1 25.2 103.3 25.1 103.3 24.9C103.3 24.8 103.2 24.7 102.8 24.7C102.4 24.7 101.8 24.6 101.3 24.6C100.4 24.5 100.3 23.8 100.2 23C100.1 21.8 100.1 19.6 100.1 16.8V14.4C100.1 14.2 100.2 14.1 100.3 14.1C100.8 14.1 103.9 14.1 104.6 14.2C105.5 14.3 105.9 14.8 106.1 15.2C106.2 15.5 106.3 15.9 106.3 16.1C106.3 16.3 106.4 16.5 106.5 16.5C106.8 16.5 106.8 16.2 106.8 15.9C106.8 15.7 106.9 14.4 106.9 13.8C107 12.9 107.1 12.2 107.1 12C107.1 11.8 107 11.7 106.9 11.7C106.7 11.7 106.7 11.8 106.5 12C106.2 12.4 105.8 12.5 105.2 12.5C104.8 12.5 104.4 12.5 103.9 12.5H100.2C100 12.5 100 12.4 100 12.2V5.09999C100 4.79999 100.1 4.69999 100.3 4.69999L104.8 4.79999C105.9 4.79999 106.5 5.29999 106.7 5.69999C106.9 6.09999 106.9 6.59999 106.9 6.79999C106.9 7.09999 107 7.29999 107.2 7.29999C107.4 7.29999 107.5 7.09999 107.5 6.89999C107.6 6.59999 107.6 4.79999 107.6 4.49999C107.7 3.69999 107.8 3.39999 107.8 3.19999C107.8 3.09999 107.7 2.89999 107.6 2.89999C107.5 2.89999 107.3 2.99999 107.1 3.09999C106.8 3.19999 106.5 3.19999 105.9 3.19999C105.2 3.19999 99.3 3.19999 98.2 3.19999C97.8 3.19999 97.1 3.19999 96.4 3.09999C95.6 3.09999 94.8 3.09999 94 3.09999C93.6 3.09999 93.3 3.19999 93.3 3.39999C93.4 3.59999 93.6 3.69999 93.9 3.69999Z" fill="black"/>
<path d="M111 6.89999C111.3 6.89999 111.8 6.89999 112 6.99999C112.8 7.19999 113 7.49999 113.1 8.29999C113.2 9.09999 113.1 9.79999 113.1 13.6V17.3C113.1 20.9 114.1 22.7 115.4 23.9C117.3 25.5 119.9 25.6 121.3 25.6C123 25.6 124.9 25.3 126.7 23.8C128.9 22 129.2 19.1 129.2 16.3V13.6C129.2 9.79999 129.2 9.09999 129.3 8.29999C129.4 7.39999 129.5 7.09999 130.2 6.99999C130.5 6.89999 130.7 6.89999 131 6.89999C131.3 6.89999 131.4 6.79999 131.4 6.59999C131.4 6.39999 131.2 6.39999 130.9 6.39999C129.9 6.39999 128.2 6.49999 127.9 6.49999C127.9 6.49999 126.2 6.39999 124.8 6.39999C124.5 6.39999 124.3 6.49999 124.3 6.59999C124.3 6.69999 124.4 6.89999 124.7 6.89999C125 6.89999 125.4 6.89999 125.6 6.99999C126.4 7.19999 126.6 7.49999 126.7 8.29999C126.7 9.09999 126.8 9.79999 126.8 13.6V16.7C126.8 19.2 126.7 21.4 125.3 22.8C124.3 23.8 123 24.1 121.9 24.1C121 24.1 119.8 24 118.7 23.1C117.4 22.1 116.7 20.7 116.7 17.1V13.6C116.7 9.79999 116.7 9.09999 116.8 8.29999C116.9 7.39999 117.1 7.09999 117.7 6.99999C118 6.89999 118.2 6.89999 118.5 6.89999C118.8 6.89999 118.9 6.79999 118.9 6.59999C118.9 6.39999 118.7 6.39999 118.3 6.39999C117.4 6.39999 115.7 6.49999 115 6.49999C114.2 6.49999 112.5 6.39999 111.1 6.39999C110.7 6.39999 110.6 6.49999 110.6 6.59999C110.6 6.79999 110.7 6.89999 111 6.89999Z" fill="black"/>
<path d="M132.4 25.2C133.7 25.2 134.9 25.1 135.2 25.1C135.7 25.1 136.9 25.2 138.5 25.2C138.8 25.2 139.1 25.1 139.1 24.9C139.1 24.7 139 24.6 138.7 24.6C138.3 24.6 137.8 24.6 137.4 24.4C136.9 24.2 136.6 23.6 136.5 21.7L136.2 11.6H136.3C136.8 12 139.5 15.1 142.3 17.8C145 20.4 148.2 23.4 149.8 25C150.1 25.3 150.4 25.5 150.8 25.5C151 25.5 151.2 25.3 151.2 24.7L151.5 9C151.5 7.6 151.7 7.2 152.4 7C152.7 6.9 152.9 6.9 153.2 6.9C153.5 6.9 153.6 6.8 153.6 6.6C153.6 6.4 153.4 6.4 153 6.4C151.8 6.4 150.8 6.5 150.5 6.5C149.9 6.5 148.6 6.4 147.2 6.4C146.8 6.4 146.6 6.4 146.6 6.6C146.6 6.7 146.7 6.9 147 6.9C147.3 6.9 148 6.9 148.3 7.1C148.9 7.3 149.1 7.8 149.2 9.3L149.5 20.3H149.4C149 20 145.6 16.4 143.9 14.7C140.2 11 136.3 7.1 136 6.8C135.6 6.4 135.2 6 134.9 6C134.6 6 134.5 6.3 134.5 6.8L134.3 21.5C134.3 23.7 134.2 24.3 133.5 24.5C133.2 24.6 132.7 24.6 132.3 24.6C132.1 24.6 131.9 24.7 131.9 24.9C131.8 25.2 132 25.2 132.4 25.2Z" fill="black"/>
<path d="M155.7 6.89999C156.1 6.89999 156.5 6.89999 156.7 6.99999C157.5 7.19999 157.7 7.49999 157.8 8.29999C157.8 9.09999 157.8 9.79999 157.8 13.6V18C157.8 20.3 157.8 22.2 157.7 23.3C157.6 24 157.5 24.5 156.9 24.6C156.7 24.7 156.4 24.7 156 24.7C155.7 24.7 155.6 24.8 155.6 25C155.6 25.2 155.8 25.3 156.1 25.3C156.6 25.3 157.3 25.3 157.9 25.2C158.5 25.2 159.1 25.2 159.4 25.2C160 25.2 161 25.3 162 25.4C163 25.5 164.1 25.5 165.1 25.5C169.8 25.5 172.6 23.8 173.7 22.6C175.2 21.2 176.5 18.8 176.5 15.7C176.5 12.7 175.4 10.7 174.1 9.39999C171.3 6.59999 167 6.59999 163.8 6.59999C162.2 6.59999 160.4 6.69999 159.6 6.69999C158.9 6.69999 157.2 6.59999 155.9 6.59999C155.5 6.59999 155.3 6.69999 155.3 6.79999C155.2 6.79999 155.4 6.89999 155.7 6.89999ZM161.3 13.2C161.3 11.2 161.3 9.19999 161.3 8.29999C161.3 7.99999 161.4 7.89999 161.6 7.79999C161.8 7.69999 162.6 7.59999 163.2 7.59999C165.2 7.59999 168 7.89999 170.4 9.99999C171.5 11 172.8 13 172.8 16.2C172.8 18.8 172.3 21 170.6 22.4C169 23.7 167.3 24.1 165 24.1C163 24.1 162 23.6 161.6 23.1C161.4 22.8 161.3 22 161.3 21.4C161.3 20.9 161.2 19 161.2 16.4L161.3 13.2Z" fill="black"/>
<path d="M199.8 22.8C202.1 24.8 205.1 25.5 208.6 25.5C210.3 25.5 212.2 25.4 213.2 25C213.6 24.8 213.8 24.7 213.9 24.3C214.2 23.4 214.5 21.3 214.5 21C214.5 20.8 214.4 20.6 214.2 20.6C214 20.6 213.9 20.7 213.9 21.1C213.8 21.6 213.5 22.3 213 22.8C212 23.9 210.7 24.1 208.4 24.1C205 24.1 200.4 21.3 200.4 15.4C200.4 13 200.9 10.6 202.8 9C204 8 205.4 7.6 207.6 7.6C210 7.6 211.7 8.2 212.6 9.1C213.2 9.7 213.6 10.6 213.6 11.4C213.6 11.7 213.7 11.9 213.9 11.9C214.1 11.9 214.2 11.6 214.2 11.3C214.2 10.8 214.2 9.4 214.3 8.6C214.4 7.7 214.4 7.4 214.4 7.2C214.4 7.1 214.3 6.9 214 6.9C213.2 6.8 212.4 6.6 211.4 6.5C210.2 6.3 209.3 6.2 207.7 6.2C203.9 6.2 201.4 7.2 199.6 8.8C197.2 11 196.6 13.9 196.6 15.6C196.6 17.9 197.3 20.7 199.8 22.8Z" fill="black"/>
<path d="M217.8 6.89999C218.1 6.89999 218.4 6.89999 218.7 6.99999C219.2 7.19999 219.5 7.49999 219.6 8.29999C219.6 9.09999 219.6 9.79999 219.6 13.6V18C219.6 20.4 219.6 22.4 219.5 23.4C219.4 24.1 219.3 24.5 218.7 24.6C218.5 24.7 218.2 24.7 217.8 24.7C217.5 24.7 217.4 24.8 217.4 25C217.4 25.2 217.6 25.3 217.9 25.3C218.9 25.3 220.7 25.2 221.3 25.2C222 25.2 223.8 25.3 225.4 25.3C225.7 25.3 225.9 25.2 225.9 25C225.9 24.9 225.8 24.7 225.5 24.7C225.1 24.7 224.5 24.7 224.2 24.6C223.4 24.5 223.3 24.1 223.2 23.4C223.1 22.4 223.1 20.4 223.1 18V13.6C223.1 9.79999 223.1 9.09999 223.2 8.29999C223.3 7.39999 223.5 7.09999 224.2 6.99999C224.5 6.89999 224.7 6.89999 225 6.89999C225.3 6.89999 225.4 6.79999 225.4 6.59999C225.4 6.49999 225.2 6.39999 224.9 6.39999C223.9 6.39999 222.2 6.49999 221.6 6.49999C220.9 6.49999 219.1 6.39999 218.2 6.39999C217.8 6.39999 217.6 6.49999 217.6 6.59999C217.5 6.89999 217.6 6.89999 217.8 6.89999Z" fill="black"/>
<path d="M237.9 25.5C244.5 25.5 248.7 21 248.7 15.3C248.7 9.6 244.7 6 238.2 6C230.4 6 227.4 11.5 227.4 15.7C227.4 20.2 230.4 25.5 237.9 25.5ZM237.4 7.4C241.6 7.4 244.9 10.8 244.9 16.3C244.9 23.4 240.8 24.2 239 24.2C234.2 24.2 231.2 20.2 231.2 15.1C231.2 8.9 234.5 7.4 237.4 7.4Z" fill="black"/>
<path d="M236.2 5C236.3 5 236.5 4.9 236.7 4.8C237.5 4.4 239.7 3.6 240.7 3.4C241.3 3.3 242.5 3.1 242.7 3.1C242.9 3.1 243 3 242.9 2.7C242.6 1.9 242.3 1.4 242 0.999997C241.9 0.699997 241.8 0.699997 241.6 0.699997C241.5 0.699997 241.3 0.799997 241 0.999997C240.5 1.3 237.5 3.6 236.3 4.7C236.1 4.8 236 5 236 5.1C236.1 4.9 236.2 5 236.2 5Z" fill="black"/>
<path d="M250.1 25.2C251.4 25.2 252.6 25.1 252.9 25.1C253.4 25.1 254.6 25.2 256.2 25.2C256.5 25.2 256.8 25.1 256.8 24.9C256.8 24.7 256.7 24.6 256.4 24.6C256 24.6 255.5 24.6 255.1 24.4C254.6 24.2 254.3 23.6 254.2 21.7L253.9 11.6H254C254.5 12 257.2 15.1 260 17.8C262.7 20.4 265.9 23.4 267.5 25C267.8 25.3 268.1 25.5 268.5 25.5C268.7 25.5 268.9 25.3 268.9 24.7L269.2 9C269.2 7.6 269.4 7.2 270.1 7C270.4 6.9 270.6 6.9 270.9 6.9C271.2 6.9 271.3 6.8 271.3 6.6C271.3 6.4 271.1 6.4 270.7 6.4C269.4 6.4 268.5 6.5 268.2 6.5C267.6 6.5 266.3 6.4 264.9 6.4C264.5 6.4 264.3 6.4 264.3 6.6C264.3 6.7 264.4 6.9 264.7 6.9C265 6.9 265.7 6.9 266 7.1C266.6 7.3 266.8 7.8 266.9 9.3L267.2 20.3H267.1C266.7 20 263.3 16.4 261.6 14.7C257.9 11 254 7.1 253.7 6.8C253.3 6.4 252.9 6 252.6 6C252.3 6 252.2 6.3 252.2 6.8L252 21.5C252 23.7 251.9 24.3 251.2 24.5C250.9 24.6 250.4 24.6 250 24.6C249.8 24.6 249.6 24.7 249.6 24.9C249.5 25.2 249.8 25.2 250.1 25.2Z" fill="black"/>
<path d="M175.5 25C175.5 25.2 175.6 25.3 176 25.3C177.3 25.3 178.7 25.2 179 25.2C179.8 25.2 181 25.3 181.9 25.3C182.2 25.3 182.3 25.2 182.3 25C182.3 24.8 182.2 24.7 181.9 24.7H181.5C180.7 24.7 180.5 24.4 180.5 24C180.5 23.7 180.6 23.1 180.9 22.5L182.3 19.2C182.3 19.2 182.3 19.1 182.4 19.1L183 17.6C183 17.6 183 17.6 183 17.5L185.5 11.2C185.5 11.1 185.6 11 185.7 11C185.8 11 185.8 11.1 185.8 11.2L188.2 17.5L188.9 19.1L190.9 24.1C191 24.4 190.8 24.6 190.7 24.7C190.4 24.7 190.4 24.8 190.4 25C190.4 25.2 190.7 25.2 191.2 25.2C193.4 25.3 195.2 25.3 196.1 25.3C197.1 25.3 197.2 25.2 197.2 25C197.2 24.8 197.1 24.7 196.9 24.7C196.6 24.7 196.3 24.7 195.9 24.6C195.4 24.5 194.7 24.2 193.7 21.9C192.1 18.1 187.8 8 187.2 6.6C186.9 6.1 186.8 5.8 186.4 5.8C186.1 5.8 185.9 6.1 185.6 6.8L178.9 22.4C178.4 23.7 177.9 24.4 176.8 24.6C176.6 24.6 176.3 24.6 176 24.6C175.6 24.7 175.5 24.8 175.5 25Z" fill="black"/>
<path d="M150.7 68.7H93.8V70.2H149.8C150.2 69.7 150.4 69.2 150.7 68.7Z" fill="#949396"/>
<path d="M149.9 70.2H93.9V74H145.3C147.1 73.1 148.9 71.7 149.9 70.2Z" fill="black"/>
<path d="M149.9 70.2H93.9V74H145.3C147.1 73.1 148.9 71.7 149.9 70.2Z" stroke="#595B5D" stroke-width="0.1722" stroke-miterlimit="10"/>
<path d="M167.8 68.7H162H161.7C161.5 69.2 161.2 69.7 160.9 70.2H171.5H270.1V68.7H167.8Z" fill="#949396"/>
<path d="M161 70.2C159.8 71.9 158.1 73.3 157.2 74H159.7H171.7H270.3V70.2H171.7H161Z" fill="black"/>
<path d="M161 70.2C159.8 71.9 158.1 73.3 157.2 74H159.7H171.7H270.3V70.2H171.7H161Z" stroke="#595B5D" stroke-width="0.1722" stroke-miterlimit="10"/>
</svg>
